<svg width="135" height="40" fill="none" xmlns="http://www.w3.org/2000/svg"><path d="M130 0H5a5 5 0 00-5 5v30a5 5 0 005 5h125a5 5 0 005-5V5a5 5 0 00-5-5z" fill="#000"/><path d="M130 .8a4.2 4.2 0 014.2 4.2v30a4.2 4.2 0 01-4.2 4.2H5A4.2 4.2 0 01.8 35V5A4.2 4.2 0 015 .8h125zm0-.8H5a5 5 0 00-5 5v30a5 5 0 005 5h125a5 5 0 005-5V5a5 5 0 00-5-5z" fill="#A6A6A6"/><path d="M49.435 27.022h-4.624l-1.128 3.088h-2.038l4.53-11.552h1.928l4.64 11.552H50.61l-1.175-3.088zm-4.044-1.567h3.448l-1.238-3.308a17.3 17.3 0 01-.501-1.52c-.157.486-.314.987-.486 1.505l-1.223 3.322zm8.261-1.835c0-.642-.016-1.332-.063-2.1h1.85c.062.36.11.721.14 1.097.768-.83 1.646-1.254 2.634-1.254.58 0 1.113.142 1.599.44.485.281.877.752 1.19 1.379.298.627.455 1.426.455 2.382 0 1.003-.172 1.865-.517 2.57-.345.706-.815 1.255-1.442 1.615-.611.36-1.332.549-2.132.549-.58 0-1.16-.094-1.724-.298v3.542l-1.975.173V23.62h-.015zm5.172 4.405c.407-.533.596-1.332.596-2.367 0-.956-.173-1.661-.502-2.1-.33-.439-.768-.643-1.332-.643a2.28 2.28 0 00-1.066.267 4.35 4.35 0 00-.925.72v4.609a3.279 3.279 0 001.458.313c.784 0 1.38-.266 1.771-.799zm3.871-4.405c0-.642-.015-1.332-.063-2.1h1.85c.063.36.11.721.141 1.097.768-.83 1.646-1.254 2.633-1.254a3 3 0 011.6.44c.485.281.877.752 1.19 1.379.298.627.455 1.426.455 2.382 0 1.003-.172 1.865-.517 2.57-.345.706-.815 1.255-1.442 1.615-.612.36-1.333.549-2.132.549-.58 0-1.16-.094-1.724-.298v3.542l-1.975.173V23.62h-.016zm5.188 4.405c.408-.533.596-1.332.596-2.367 0-.956-.172-1.661-.502-2.1-.329-.439-.768-.643-1.332-.643a2.28 2.28 0 00-1.066.267 4.35 4.35 0 00-.924.72v4.609a3.279 3.279 0 001.458.313c.783 0 1.363-.266 1.77-.799zm6.317 1.552a4.783 4.783 0 01-1.96-2.022c-.454-.878-.69-1.912-.69-3.104 0-1.3.267-2.398.785-3.307.533-.909 1.238-1.583 2.147-2.037.909-.455 1.928-.69 3.056-.69a8.27 8.27 0 013.59.815l-.502 1.52c-1.05-.501-2.053-.752-2.994-.752-.799 0-1.504.172-2.116.517-.61.345-1.065.847-1.41 1.505-.33.658-.502 1.473-.502 2.414 0 .83.126 1.551.392 2.194.267.643.658 1.144 1.223 1.52.548.377 1.254.565 2.1.565a7.12 7.12 0 001.144-.094 6.083 6.083 0 001.082-.282v-2.336H76.88v-1.552h4.593v4.86a9.328 9.328 0 01-2.085.705 9.26 9.26 0 01-2.163.25c-1.16.016-2.163-.219-3.025-.69zm14.357.548a10.38 10.38 0 01-.14-1.144c-.299.36-.706.674-1.192.925a3.547 3.547 0 01-1.646.376c-.501 0-.94-.094-1.348-.298a2.193 2.193 0 01-.972-.877c-.235-.392-.36-.863-.36-1.427 0-.83.298-1.505.909-1.99.596-.502 1.599-.753 3.01-.753.532 0 1.05.032 1.567.11v-.172c0-.768-.157-1.301-.486-1.615-.33-.313-.784-.47-1.395-.47a5.36 5.36 0 00-1.348.188 6.85 6.85 0 00-1.254.439l-.314-1.442a7.035 7.035 0 011.396-.439 8.5 8.5 0 011.818-.204c.736 0 1.379.11 1.896.345.518.22.925.611 1.223 1.16.298.549.439 1.285.439 2.226v3.417c0 .36.015.893.062 1.614h-1.865v.031zm-1.175-1.598c.407-.204.752-.44 1.003-.737v-1.599a11.686 11.686 0 00-1.317-.094c-.815 0-1.38.126-1.693.392-.313.267-.47.611-.47 1.066 0 .423.11.736.345.94.22.204.533.314.925.314.392.015.8-.094 1.207-.282zm4.686-.471V17.884l1.96-.157v9.985c0 .36.062.627.188.783.125.157.329.235.595.235.126 0 .298-.03.517-.094l.236 1.411a2.458 2.458 0 01-.69.172 4.352 4.352 0 01-.768.063c-1.348 0-2.038-.736-2.038-2.226zm4.906 0V17.884l1.96-.157v9.985c0 .36.062.627.188.783.125.157.329.235.595.235.126 0 .298-.03.517-.094l.236 1.411a2.47 2.47 0 01-.69.172 4.35 4.35 0 01-.768.063c-1.348 0-2.038-.736-2.038-2.226zm11.662-1.99h-5.627c.094 1.802.956 2.696 2.57 2.696.408 0 .815-.047 1.239-.141a7.96 7.96 0 001.222-.392l.423 1.348c-.956.47-2.037.705-3.244.705-.909 0-1.693-.172-2.32-.517a3.327 3.327 0 01-1.411-1.49c-.313-.642-.47-1.425-.47-2.35 0-.956.173-1.771.502-2.461a3.585 3.585 0 011.395-1.567c.595-.36 1.285-.549 2.069-.549.815 0 1.489.188 2.037.564a3.3 3.3 0 011.207 1.52c.267.628.392 1.333.392 2.101v.533h.016zm-1.928-1.254c-.031-.69-.204-1.207-.517-1.536-.314-.345-.721-.517-1.239-.517-.501 0-.909.172-1.254.517-.329.345-.548.862-.642 1.536h3.652zm3.511-1.129c0-.47-.016-1.19-.063-2.163h1.85c.031.235.062.533.094.862.031.33.047.596.062.815.235-.376.455-.69.674-.956.22-.266.486-.47.768-.627.298-.156.627-.25 1.003-.25a2.9 2.9 0 01.784.094l-.251 1.708a2.047 2.047 0 00-.642-.094c-.47 0-.862.125-1.207.36-.345.236-.721.627-1.113 1.176v5.533h-1.959v-6.458zm6.348 9.953a4.657 4.657 0 01-.706-.172l.361-1.442c.125.031.298.078.501.11.204.03.392.047.58.047.878 0 1.521-.565 1.96-1.678l.125-.313-3.166-8.683h2.116l1.599 4.843c.266.83.423 1.458.501 1.912a27.76 27.76 0 01.533-1.865l1.615-4.89h1.99l-3.166 8.714c-.298.831-.627 1.49-.972 1.991-.345.502-.752.878-1.222 1.129-.471.25-1.035.36-1.709.36a3.62 3.62 0 01-.94-.063zM41.63 7.32h3.558l-.094.862H42.68v1.662h2.273v.799H42.68v1.834h2.54l-.094.862H41.63V7.32zm6.003 2.962l-1.88-2.947h1.175l1.27 2.163 1.332-2.163h1.144l-1.865 2.916 2.006 3.119h-1.207l-1.442-2.367-1.457 2.367H45.61l2.022-3.088zm3.981-2.962h1.63c.769 0 1.348.156 1.756.47.407.313.611.768.611 1.348 0 .407-.094.752-.266 1.05a1.821 1.821 0 01-.768.69c-.33.156-.706.235-1.113.235a4.91 4.91 0 01-.784-.079v2.32h-1.034V7.32h-.032zm2.618 2.695c.22-.203.33-.485.33-.846 0-.376-.11-.643-.346-.8-.22-.156-.564-.25-1.003-.25h-.549v2.147c.267.047.455.063.596.063.423-.016.753-.11.972-.314zM56.63 7.32h1.035v5.14h2.492l-.094.894h-3.449V7.32h.016zm5.125 5.736a2.57 2.57 0 01-1.018-1.065c-.235-.455-.345-.988-.345-1.6 0-.642.125-1.19.376-1.66.25-.47.611-.847 1.082-1.098.47-.266 1.018-.392 1.661-.392.611 0 1.128.126 1.567.377.44.25.768.61 1.004 1.065.235.455.344.988.344 1.583 0 .643-.125 1.207-.376 1.693a2.6 2.6 0 01-1.081 1.097 3.45 3.45 0 01-1.646.392c-.611-.015-1.129-.14-1.568-.392zm2.696-.736a1.7 1.7 0 00.659-.815 3.08 3.08 0 00.22-1.176c0-.439-.064-.815-.189-1.16a1.687 1.687 0 00-.611-.815c-.282-.204-.643-.298-1.082-.298-.423 0-.783.11-1.081.314-.298.204-.517.47-.658.815-.142.345-.22.72-.22 1.128 0 .44.063.831.204 1.176.14.345.345.611.643.815.282.204.642.298 1.065.298a1.79 1.79 0 001.05-.282zm3.119-5h1.882c.69 0 1.206.14 1.567.407.36.282.533.674.533 1.176a1.825 1.825 0 01-.658 1.442 2.027 2.027 0 01-.58.345l1.85 2.664h-1.208l-1.567-2.398h-.768v2.398h-1.035V7.32h-.015zm1.63 2.852c.251 0 .471-.047.675-.14.188-.095.345-.236.454-.424.11-.172.157-.392.157-.627 0-.298-.094-.517-.282-.658-.188-.141-.47-.204-.83-.204h-.753v2.069h.58v-.016zm3.778-2.852h3.558l-.094.862h-2.414v1.661h2.273v.8h-2.273v1.833h2.54l-.094.862h-3.496V7.32zm7.43 0h1.034v6.034h-1.034V7.32zm3.792.877h-1.865l.094-.877h4.687l-.094.877H85.25v5.157h-1.034V8.197H84.2zm7.43 4.859a2.57 2.57 0 01-1.018-1.065c-.236-.455-.345-.988-.345-1.6 0-.642.125-1.19.376-1.66.25-.47.611-.847 1.081-1.098.47-.266 1.02-.392 1.662-.392.611 0 1.128.126 1.567.377.439.25.768.61 1.003 1.065.235.455.345.988.345 1.583 0 .643-.125 1.207-.376 1.693-.25.47-.611.847-1.082 1.097a3.45 3.45 0 01-1.645.392c-.596-.015-1.129-.14-1.568-.392zm2.696-.736a1.7 1.7 0 00.659-.815 3.08 3.08 0 00.219-1.176c0-.439-.063-.815-.188-1.16a1.687 1.687 0 00-.611-.815c-.283-.204-.643-.298-1.082-.298-.423 0-.784.11-1.081.314-.298.204-.518.47-.659.815-.14.345-.22.72-.22 1.128 0 .44.064.831.205 1.176.14.345.344.611.642.815.282.204.643.298 1.066.298.408.015.768-.094 1.05-.282zm3.119-5h1.191l2.978 4.67c-.031-.438-.031-.846-.031-1.222V7.32h.972v6.034h-1.16l-3.025-4.75c.031.534.047 1.02.047 1.427v3.323h-.972V7.32z" fill="#fff"/><path fill-rule="evenodd" clip-rule="evenodd" d="M27.022 7.273H15.893c-5.235 0-7.163 1.912-7.163 7.163v11.128c0 5.235 1.913 7.163 7.163 7.163h11.129c5.235 0 7.163-1.912 7.163-7.163V14.436c-.016-5.25-1.928-7.163-7.163-7.163z" fill="#C8102E"/><path d="M13.777 20h.674v3.323h-.674v-1.348h-1.52v1.348h-.674V20h.674v1.348h1.52V20zm3.793 1.896c0 .533-.266.831-.752.831s-.768-.298-.768-.846V20h-.674v1.896c0 .94.517 1.474 1.426 1.474.91 0 1.442-.549 1.442-1.505v-1.881h-.674v1.912zm7.806.392L24.624 20h-.549l-.752 2.288L22.586 20h-.72l1.159 3.323h.564l.753-2.18.752 2.18h.564L26.818 20h-.705l-.737 2.288zm2.633-.392h1.223v-.611h-1.223v-.674h1.787V20h-2.445v3.323h2.508v-.612h-1.85v-.815zm2.665 1.427h.658V20h-.658v3.323zm-11.097-.69l-.298.69h-.69L20.047 20h.595l1.458 3.323h-.705l-.298-.69h-1.52zm.25-.611h1.02l-.518-1.192-.502 1.192zm1.631-6.254a4.234 4.234 0 01-4.232-4.232h.596a3.639 3.639 0 003.636 3.636 3.639 3.639 0 003.637-3.636h.595a4.245 4.245 0 01-4.232 4.232z" fill="#fff"/></svg>