<svg width="24" height="24" fill="none" xmlns="http://www.w3.org/2000/svg"><path d="M10.8 18.2c1.2-.3 2.4-.8 3.4-1.3.9.5 1.8.9 2.8 1.3.5.2.9.7.7 1.3l-.3.9c-.1.5-.8.8-1.4.6-6-2.2-10.8-7-12.9-13.1-.2-.6 0-1.3.6-1.4l.9-.3c.5-.1 1.1.2 1.3.7.3 1 .8 1.9 1.3 2.8-.5 1.1-1 2.2-1.3 3.4" stroke="#2EB875" stroke-width="2" stroke-linecap="round" stroke-linejoin="round"/><path d="M16 3c-2.8 0-5 2.2-5 5v5h5c2.8 0 5-2.2 5-5s-2.2-5-5-5z" stroke="#2EB875" stroke-width="2" stroke-linecap="round" stroke-linejoin="round"/></svg>