<svg version="1.1" id="Layer_1" xmlns="http://www.w3.org/2000/svg" xmlns:xlink="http://www.w3.org/1999/xlink" x="0" y="0" viewBox="0 0 62 80.1" xml:space="preserve"><style>.st1{fill:#3be893}.st5{fill:#6675ff}</style><g id="Layer_1-2"><path id="Fill-1-2" d="M62 29.6C62 45 49.6 57.4 34.2 57.4S6.4 45 6.4 29.6 18.9 1.8 34.2 1.8C49.6 1.8 62 14.3 62 29.6" fill-rule="evenodd" clip-rule="evenodd" fill="#eeeef6"/><circle class="st1" cx="34.8" cy="44.3" r="8.3"/><path class="st1" d="M15.8 8.8c1 .2 2 .4 3.1.4 5.1 0 9.6-2.9 11.8-7.1-5.6.7-10.8 3.1-14.9 6.7zM6.6 32.2c.6 6.1 3.1 11.6 6.9 15.9.4-1.2.6-2.5.6-3.9 0-5.3-3.1-9.8-7.5-12z"/><path d="M36.7 1.9c-3.4 3.6-5.6 8.5-5.6 13.9 0 11.2 9 20.2 20.2 20.2 3.8 0 7.4-1.1 10.5-3 .1-1.1.2-2.3.2-3.4C62 15.1 50.9 3.2 36.7 1.9z" fill-rule="evenodd" clip-rule="evenodd" fill="#3be893"/><path d="M5.4 11.2h25.4c2.6 0 4.6 2.1 4.6 4.6V74c0 2.6-2.1 4.6-4.6 4.6H5.4C2.8 78.6.8 76.5.8 74V15.9c-.1-2.6 2-4.7 4.6-4.7z" fill="#e6e7eb"/><defs><path id="SVGID_1_" d="M5.4 11.2h25.4c2.6 0 4.6 2.1 4.6 4.6V74c0 2.6-2.1 4.6-4.6 4.6H5.4C2.8 78.6.8 76.5.8 74V15.9c-.1-2.6 2-4.7 4.6-4.7z"/></defs><clipPath id="SVGID_2_"><use xlink:href="#SVGID_1_" overflow="visible"/></clipPath><g clip-path="url(#SVGID_2_)"><path class="st5" d="M-.9 68.7h38v11.4h-38zM-.4 7.1h36.8v11.4H-.4z"/></g><circle cx="18.1" cy="73.6" r="2.8" fill="#fff"/></g></svg>