<svg width="42" height="42" viewBox="0 0 42 42" fill="none" xmlns="http://www.w3.org/2000/svg">
<path d="M21 41C32.0457 41 41 32.0457 41 21C41 9.9543 32.0457 1 21 1C9.9543 1 1 9.9543 1 21C1.00001 32.0457 9.95431 41 21 41Z" stroke="#2F313F" stroke-miterlimit="10"/>
<path d="M30.7806 18.8843C30.6008 18.9018 30.4207 18.911 30.2405 18.9118C29.2676 18.9118 28.31 18.6696 27.4541 18.2071C26.5982 17.7445 25.8709 17.0762 25.3379 16.2623V25.2817C25.338 26.6008 24.947 27.8902 24.2142 28.987C23.4815 30.0838 22.4399 30.9387 21.2213 31.4435C20.0027 31.9483 18.6617 32.0805 17.368 31.8231C16.0743 31.5658 14.886 30.9307 13.9533 29.998C13.0206 29.0653 12.3854 27.8769 12.1281 26.5832C11.8708 25.2895 12.0029 23.9486 12.5078 22.73C13.0126 21.5114 13.8674 20.4698 14.9642 19.7371C16.061 19.0043 17.3505 18.6133 18.6695 18.6134C18.8087 18.6134 18.9444 18.626 19.0813 18.6346V21.9198C18.6207 21.8621 18.1532 21.8994 17.7076 22.0295C17.2621 22.1596 16.8479 22.3797 16.4907 22.6761C16.1335 22.9725 15.8409 23.339 15.6309 23.753C15.4209 24.167 15.298 24.6196 15.2698 25.0829C15.2416 25.5462 15.3087 26.0104 15.4669 26.4468C15.6251 26.8831 15.8711 27.2825 16.1897 27.62C16.5084 27.9576 16.8928 28.2262 17.3193 28.4094C17.7458 28.5926 18.2053 28.6864 18.6695 28.6849C20.5492 28.6849 22.2096 27.2039 22.2096 25.3236L22.2428 10H25.3866C25.53 11.366 26.1492 12.6382 27.1358 13.5939C28.1224 14.5495 29.4135 15.128 30.7835 15.2279V18.8843" fill="#2F313F"/>
</svg>
