<svg width="40" height="40" xmlns="http://www.w3.org/2000/svg"><g fill="none" fill-rule="evenodd"><circle stroke="#2F313F" cx="20" cy="20" r="19.5"/><path d="M16.29 27.918c7.547 0 11.675-6.253 11.675-11.675 0-.178 0-.355-.012-.53A8.349 8.349 0 0030 13.587a8.19 8.19 0 01-2.357.646 4.118 4.118 0 001.804-2.27 8.223 8.223 0 01-2.605.996 4.107 4.107 0 00-6.993 3.743 11.65 11.65 0 01-8.457-4.288 4.106 4.106 0 001.27 5.478 4.073 4.073 0 01-1.862-.514v.052a4.105 4.105 0 003.292 4.023 4.097 4.097 0 01-1.853.07 4.108 4.108 0 003.834 2.85 8.234 8.234 0 01-6.073 1.7 11.617 11.617 0 006.29 1.84" fill="#2F313F" fill-rule="nonzero"/></g></svg>