<svg xmlns="http://www.w3.org/2000/svg" viewBox="0 0 92.02 72.85"><defs><clipPath id="clip-path"><rect class="cls-1" y="67.72" width="29.24" height="5.13" rx="1.39"/></clipPath><clipPath id="clip-path-2"><rect class="cls-1" y="62.59" width="29.24" height="5.13" rx="1.39"/></clipPath><clipPath id="clip-path-3"><rect class="cls-1" y="57.46" width="29.24" height="5.13" rx="1.39"/></clipPath><style>.cls-1{fill:none}.cls-7{fill:#fccf07}.cls-9{fill:#fab306}.cls-10{fill:#fcee8f}</style></defs><g id="Layer_2" data-name="Layer 2"><g id="Layer_1-2" data-name="Layer 1"><path d="M27.71 7.78h49.07a3.29 3.29 0 013.29 3.29v14.35a3.29 3.29 0 01-3.29 3.29H27.71V7.78z" transform="rotate(-21.17 53.883 18.238)" fill="#34cf84"/><path d="M28.66 12.17h52.47a3.4 3.4 0 013.4 3.4V29.7a3.4 3.4 0 01-3.4 3.4H28.66V12.17z" transform="matrix(.99 -.17 .17 .99 -3.02 9.95)" fill="#3be994"/><rect x="21.45" y="16.74" width="67.78" height="56.11" rx="4.65" fill="#e7e8ec"/><rect x="70.84" y="34.87" width="21.19" height="19.86" rx="3.59" fill="#d1d2da"/><circle cx="81.43" cy="44.8" r="4.48" fill="#a7a9b7"/><rect class="cls-7" y="67.72" width="29.24" height="5.13" rx="1.39"/><g clip-path="url(#clip-path)"><path class="cls-9" d="M0 71.38h29.48v1.47H0z"/></g><path class="cls-10" d="M3.61 67.72h4.16v3.66H3.61z"/><rect class="cls-7" y="62.59" width="29.24" height="5.13" rx="1.39"/><g clip-path="url(#clip-path-2)"><path class="cls-9" d="M0 66.25h29.48v1.47H0z"/></g><path class="cls-10" d="M3.61 62.59h4.16v3.66H3.61z"/><rect class="cls-7" y="57.46" width="29.24" height="5.13" rx="1.39"/><g clip-path="url(#clip-path-3)"><path class="cls-9" d="M0 61.12h29.48v1.47H0z"/></g><path class="cls-10" d="M3.61 57.46h4.16v3.66H3.61z"/><circle class="cls-9" cx="27.61" cy="58.23" r="14.62"/><circle class="cls-10" cx="27.61" cy="58.23" r="12.2"/><circle class="cls-7" cx="27.61" cy="58.23" r="8.82"/></g></g></svg>