<svg xmlns="http://www.w3.org/2000/svg" viewBox="0 0 118.76 45.67"><defs><linearGradient id="linear-gradient" x1="74.03" x2="74.03" y2="39.71" gradientUnits="userSpaceOnUse"><stop offset="0" stop-color="#eae9ee"/><stop offset=".47" stop-color="#e7e6ec"/><stop offset=".8" stop-color="#dedee4"/><stop offset="1" stop-color="#d4d4db"/></linearGradient><linearGradient id="linear-gradient-2" x1="43.43" y1="-.17" x2="43.43" y2="42.87" gradientUnits="userSpaceOnUse"><stop offset="0" stop-color="#dcdce3"/><stop offset=".33" stop-color="#d8d8df"/><stop offset=".66" stop-color="#ccccd5"/><stop offset=".99" stop-color="#b8b8c3"/><stop offset="1" stop-color="#b7b7c2"/></linearGradient><style>.cls-1{fill:#2f313f}.cls-4{fill:#a9abb9}</style></defs><g id="Layer_2" data-name="Layer 2"><g id="Layer_1-2" data-name="Layer 1"><g id="car-clock"><path class="cls-1" d="M103 22.91h-4v22.76h4c4.39 0 8-5.1 8-11.38s-3.65-11.38-8-11.38z"/><ellipse class="cls-1" cx="98.99" cy="34.29" rx="7.94" ry="11.38"/><path class="cls-1" d="M49.25 22.91h-4v22.76h4c4.39 0 7.94-5.1 7.94-11.38s-3.55-11.38-7.94-11.38z"/><ellipse class="cls-1" cx="45.28" cy="34.29" rx="7.94" ry="11.38"/><path class="cls-1" d="M19.58 24.81h-4v20.86h4c4.39 0 7.94-5.1 7.94-11.38s-3.52-9.48-7.94-9.48zM71.2 24.81h-4v20.86h4c4.39 0 7.94-5.1 7.94-11.38s-3.55-9.48-7.94-9.48z"/><path d="M118.75 28.45v5.78a4 4 0 01-3.35 4l-9.27 1.45H35.85l-3.08-2.58C30 36.33 29.3 15.89 29.3 15.89l.69-2L33.49 4a12.11 12.11 0 001.39-1.19 10.5 10.5 0 00.73-.81C37.48-.18 34 0 37.46 0h27.27a20.31 20.31 0 0110.15 2.78c.65.36 1.29.76 1.93 1.19.45.3.91.64 1.35 1L92 13.9l23 9a6 6 0 012.6 2l.06.1a5.6 5.6 0 011.07 2.86 2.93 2.93 0 01.02.59z" fill="url(#linear-gradient)"/><path d="M86.86 28.35v5.4a6 6 0 01-6 6H14L8.41 37.5c-4.71-1.29-9-4.25-8.34-10.18l1.24-9.92a5 5 0 013.89-4.26l.27-.06a11.24 11.24 0 005.34-2.73L15.24 6c4.07-3.69 8.79-6 14-6h9.69a16.65 16.65 0 019.21 2.78 17 17 0 013.72 3.42l7.83 7.7L83 22.78a6 6 0 013.86 5.57z" fill="url(#linear-gradient-2)"/><ellipse class="cls-1" cx="15.61" cy="34.29" rx="7.94" ry="11.38"/><ellipse class="cls-4" cx="15.61" cy="34.29" rx="4.65" ry="7.65"/><ellipse class="cls-1" cx="67.23" cy="34.29" rx="7.94" ry="11.38"/><ellipse class="cls-4" cx="67.23" cy="34.29" rx="4.65" ry="7.65"/><path d="M93.8 30.48l.54.93-.48-.86z" fill="none"/><path d="M92 13.9H59.69l-7.83-7.7a17 17 0 00-3.77-3.42H69A19.91 19.91 0 0179.8 6z" fill="#585a68"/><path class="cls-1" d="M59.69 13.9H20.06a3 3 0 01-1.85-5.26L21 6.45a16.72 16.72 0 0110.4-3.67h16.69a17 17 0 013.77 3.42z"/><path class="cls-4" d="M118.75 28.45v2h-4.07a2 2 0 01-1.58-.8l-1.61-2.14a2 2 0 00-1.59-.79H96a2 2 0 00-1.58.79l-1.61 2.14a2 2 0 01-1.59.8h-7.86a2 2 0 01-1.59-.82l-1.07-1.47A2 2 0 0182.3 25h35.34a5.6 5.6 0 011.07 2.86 2.93 2.93 0 01.04.59z"/></g></g></g></svg>