<svg height="40" width="40" xmlns="http://www.w3.org/2000/svg"><mask id="a" fill="#fff"><path d="M0 .006h19.994v19.992H0z" fill-rule="evenodd"/></mask><g fill="none" fill-rule="evenodd"><circle cx="20" cy="20" r="19.5" stroke="#2f313f"/><g fill="#2f313f"><path d="M9.997.006c-2.715 0-3.056.012-4.122.06-1.064.049-1.79.218-2.426.465a4.9 4.9 0 00-1.771 1.153 4.9 4.9 0 00-1.153 1.77C.278 4.092.109 4.818.06 5.882.012 6.948 0 7.288 0 10.003s.012 3.056.06 4.122c.049 1.064.218 1.79.465 2.426a4.9 4.9 0 001.153 1.771 4.9 4.9 0 001.77 1.153c.636.247 1.363.416 2.427.465 1.066.048 1.407.06 4.122.06s3.055-.012 4.122-.06c1.064-.049 1.79-.218 2.426-.465a4.9 4.9 0 001.77-1.153 4.9 4.9 0 001.154-1.77c.247-.636.416-1.363.465-2.427.048-1.066.06-1.407.06-4.122s-.012-3.055-.06-4.122c-.049-1.064-.218-1.79-.465-2.426a4.9 4.9 0 00-1.153-1.77A4.9 4.9 0 0016.546.53c-.637-.247-1.363-.416-2.427-.465-1.067-.048-1.407-.06-4.122-.06zm0 1.802c2.67 0 2.985.01 4.04.058.974.044 1.503.207 1.856.344.466.181.8.398 1.15.748.349.35.566.683.747 1.15.137.352.3.88.344 1.856.048 1.054.058 1.37.058 4.04 0 2.668-.01 2.985-.058 4.039-.044.974-.207 1.504-.344 1.856-.181.467-.398.8-.748 1.15-.35.35-.683.566-1.15.747-.352.137-.88.3-1.856.344-1.054.049-1.37.059-4.04.059-2.669 0-2.985-.01-4.039-.059-.974-.044-1.504-.207-1.856-.344a3.097 3.097 0 01-1.15-.748 3.097 3.097 0 01-.747-1.149c-.137-.352-.3-.882-.344-1.856-.049-1.054-.059-1.37-.059-4.04s.01-2.985.059-4.04c.044-.974.207-1.503.344-1.856.181-.466.398-.8.748-1.15.35-.349.682-.566 1.149-.747.352-.137.882-.3 1.856-.344 1.054-.048 1.37-.058 4.04-.058z" mask="url(#a)" transform="translate(10 10)"/><path d="M19.997 23.335a3.332 3.332 0 110-6.664 3.332 3.332 0 010 6.664zm0-8.465a5.133 5.133 0 100 10.267 5.133 5.133 0 000-10.267zM26.533 14.667a1.2 1.2 0 11-2.4 0 1.2 1.2 0 012.4 0"/></g></g></svg>